<svg width="20" height="21" viewBox="0 0 20 21" fill="none" xmlns="http://www.w3.org/2000/svg">
<path d="M7.7895 16.3334C7.57022 16.3334 7.35587 16.265 7.17356 16.137C6.99125 16.0089 6.84916 15.827 6.76525 15.6141C6.68134 15.4012 6.65938 15.1669 6.70215 14.9409C6.74492 14.7149 6.85049 14.5073 7.00552 14.3444L10.6571 10.5072L7.00552 6.67012C6.89961 6.56263 6.81513 6.43406 6.75702 6.29189C6.6989 6.14973 6.66831 5.99683 6.66703 5.84211C6.66575 5.68739 6.69381 5.53395 6.74957 5.39075C6.80532 5.24755 6.88766 5.11744 6.99178 5.00804C7.09589 4.89863 7.2197 4.81211 7.35598 4.75352C7.49225 4.69493 7.63827 4.66545 7.78551 4.66679C7.93274 4.66814 8.07825 4.70028 8.21354 4.76135C8.34883 4.82242 8.47119 4.91119 8.57348 5.02248L13.009 9.68342C13.2169 9.90193 13.3337 10.1983 13.3337 10.5072C13.3337 10.8162 13.2169 11.1125 13.009 11.3311L8.57348 15.992C8.36557 16.2105 8.08357 16.3333 7.7895 16.3334Z" fill="#474747"/>
</svg>
